<svg xmlns="http://www.w3.org/2000/svg" width="1240" height="1240"><path d="M535.5 49.497c-31.465 5.92-54.561 30.302-58.465 61.72-3.93 31.626 15.219 62.43 45.566 73.301 4.344 1.556 8.059 2.949 8.254 3.094.195.146-1.365 1.755-3.468 3.576-59.925 51.906-124.69 140.468-172.267 235.563-60.958 121.838-85.881 230.754-72.103 315.089 11.287 69.093 47.392 112.364 112.817 135.21l9.166 3.201V977h429v-96.726l9.25-3.256c13.792-4.854 34.831-15.205 46.194-22.726 13.081-8.658 30.906-26.367 39.382-39.128 19.144-28.821 28.771-63.961 30.731-112.169 2.491-61.262-16.045-140.07-53.272-226.495-3.08-7.15-5.769-13.203-5.977-13.451-.207-.248-51.549 50.676-114.092 113.165-98.505 98.418-114.251 113.76-117.716 114.695-9.921 2.678-12.506 1.29-30.322-16.27-18.821-18.551-20.588-21.548-18.167-30.805 1.028-3.932 12.507-15.714 123.676-126.955l122.543-122.62-6.798-11.88c-45.929-80.259-99.699-149.817-147.792-191.191-2.118-1.821-3.69-3.43-3.495-3.576.195-.145 3.793-1.495 7.994-2.999 30.571-10.945 49.84-41.683 45.858-73.153-4.145-32.766-28.831-57.853-61.38-62.38-11.951-1.663-155.999-1.298-165.117.417M288.024 1050.603c-10.065 2.705-18.377 9.288-22.886 18.127-3.826 7.5-4.288 13.958-3.949 55.27.315 38.502.382 39.644 2.621 45.202 4.511 11.195 14.689 19.49 26.69 21.754 4.408.831 92.629 1.053 332.5.838l326.5-.294 5.702-2.304c7.044-2.846 14.526-9.434 17.998-15.848 4.531-8.371 4.961-13.63 4.611-56.348-.315-38.397-.387-39.658-2.601-45.147-4.335-10.751-13.758-18.832-25.063-21.493-4.639-1.091-63.761-1.32-331.147-1.279-283.272.044-326.21.242-330.976 1.522" fill="undefined" fill-rule="evenodd"/></svg>